<?xml version="1.0" encoding="utf-8"?><svg viewBox="0 0 1490 169" xmlns="http://www.w3.org/2000/svg"><path fill="#fff" fillRule="evenodd" d="M0,42.06l27.63,4.38c27.52,4.71,83.08,13,137.92,8.85C220.71,51.15,276.27,33,331.11,50.9c55.15,17.61,110.72,70.53,165.56,97,55.15,26.46,110.71,26.46,165.55,8.85,55.15-17.94,110.72-52.67,165.56-79.37C882.93,51.15,938.49,33,993.33,24.45c55.15-8.85,110.72-8.85,165.56,22,55.15,31.17,110.71,92.35,165.55,101.44,55.15,9.1,110.72-35.55,137.62-57.29L1490,68.51V0H0Z" /></svg>
