<svg xmlns="http://www.w3.org/2000/svg" width="880.687" height="984.438"><path fill="gold" fill-rule="evenodd" d="M107.36-72.358L.001-85.413C22.487-70.9 324.242-81.13 381.687 50c35.4 83.338-106.446 166.675 5 297 33.692 38.548 55.65 47.574 113.994 65.252 58.736 17.344 93.876 59.275 149.126 79.576s99.28 50.09 119.4 100.132c19.84 50.267 45.1 91.347 89.6 120.744 44.24 29.62 138.37 17 172.07 55.546 33.95 38.325 8.12 127.262-4.8 171.73l-12.9 44.468 608.6-643.37-224.7-212.203q-56.175-53.05-112.34-106.1l-224.7-212.2q-56.175-53.05-112.34-106.1l-224.7-212.203z"/></svg>